<svg id="Layer_1" data-name="Layer 1" xmlns="http://www.w3.org/2000/svg" xmlns:xlink="http://www.w3.org/1999/xlink" viewBox="0 0 300.8545 170.0189"><defs>
  <style>.cls-1{fill:#e71984;}.cls-2{fill:url(#linear-gradient);}.cls-3{fill:#fdc300;}</style><linearGradient id="linear-gradient" x1="84.7302" y1="130.3753" x2="223.4902" y2="130.3753" gradientUnits="userSpaceOnUse"><stop offset="0.0035" stop-color="#c7017f"/><stop offset="0.25" stop-color="#d7007f"/><stop offset="0.5" stop-color="#e8308a"/><stop offset="0.75" stop-color="#f7a600"/><stop offset="1" stop-color="#fdc300"/></linearGradient></defs><path class="cls-1" d="M221.0324,29.593a6.5648,6.5648,0,0,0-3.7461-1.7271c-2.8047-.5166-8.1973-.2036-8.1973-1.4878,0-.9546,1.4443-1.6,1.7217-1.7021a6.9408,6.9408,0,0,0,2.1318.3095,7.07,7.07,0,0,0,7.2168-6.9423,6.4462,6.4462,0,0,0-.9638-3.4864c.9316-.2988,2.1044-1.5854,1.958-3.9375a4.394,4.394,0,0,1-3.5254,1.232h-1.4063a6.6264,6.6264,0,0,0-3.164-.7569,7.1454,7.1454,0,0,0-7.2979,7.0147,6.8607,6.8607,0,0,0,2.9854,5.5659c-1.4082,1.0957-2.585,2.082-2.585,3.5283a2.66,2.66,0,0,0,.8574,1.9629c2.31,2.0859,7.6026,1.0786,10.9258,2.0654,1.8555.522,1.8613,1.3965,1.8613,1.6841a1.5466,1.5466,0,0,1-.6152,1.2017,8.5882,8.5882,0,0,1-5.7285,1.7964c-3.5947,0-5.4717-1.2784-5.4717-2.3692,0-1.0991,1.0215-1.8178,3.1377-1.6338a4.2476,4.2476,0,0,0-2.89-1.3774,3.6645,3.6645,0,0,0-3.6748,3.6978c0,1.5805,1.4248,4.32,7.7725,4.32,5.8115,0,9.7988-2.9756,9.7988-6.1055A4.253,4.253,0,0,0,221.0324,29.593Zm-7.9746-16.3482c2.0322,0,3.7461,1.9907,3.7461,4.8194,0,2.9331-1.8711,4.7221-3.7461,4.7221-1.8633,0-3.7412-1.789-3.7412-4.7221C209.3166,15.2355,211.0363,13.2448,213.0578,13.2448Z" transform="translate(-2.5939 -1.7473)"/><path class="cls-1" d="M100.1847,28.2292c-1.7939,1.3057-2.0146-.0952-2.0146-.6245V17.134c0-3.938-2.2622-6.0132-6.522-6.0132a9.4623,9.4623,0,0,0-7.17,3.0894l-.2334.29.978.7348.1948-.18a8.6966,8.6966,0,0,1,4.9629-1.8213c1.4463,0,4.4282.8379,4.4282,3.4262V17.966c-3.5434.7012-10.9013,2.17-10.9013,7.5943,0,3.9746,3.4394,5.0307,5.4668,5.0307a6.2829,6.2829,0,0,0,4.78-2.5659h0V26.0573l-.582.4678a4.4818,4.4818,0,0,1-3.0039,1.1728A2.7752,2.7752,0,0,1,87.5114,24.8c0-2.022,2.7153-3.7475,7.2973-4.6284v6.687c0,3.1221,1.3247,3.6255,2.1455,3.6255a5.5578,5.5578,0,0,0,3.125-1.4888l.3985-.3149Z" transform="translate(-2.5939 -1.7473)"/><path class="cls-1" d="M151.4943,28.2292c-1.7969,1.3057-2.0147-.0952-2.0147-.6245V17.134c0-3.938-2.2578-6.0132-6.5136-6.0132a9.3919,9.3919,0,0,0-7.169,3.0894l-.2392.29.9746.7348.1894-.18a8.73,8.73,0,0,1,4.9629-1.8213c1.4492,0,4.4277.8379,4.4277,3.4262V17.966c-3.5292.7012-10.8945,2.17-10.8945,7.5943,0,3.9746,3.4385,5.0307,5.4737,5.0307a6.292,6.292,0,0,0,4.7744-2.5659h0V26.0573l-.5743.4678a4.5339,4.5339,0,0,1-3.0175,1.1728A2.7758,2.7758,0,0,1,138.82,24.8c0-2.022,2.7129-3.7475,7.2929-4.6284v6.687c0,3.1221,1.3379,3.6255,2.16,3.6255a5.4852,5.4852,0,0,0,3.1045-1.4888l.4053-.3149Z" transform="translate(-2.5939 -1.7473)"/><path class="cls-1" d="M177.4738,1.7473c-.5254,1.4951-2.27,2.2871-2.27,4.0522,0,1.5537,2.27,2.4111,2.27,3.08,0-.669,2.2734-1.5264,2.2734-3.08C179.7472,4.0344,178.0041,3.2424,177.4738,1.7473Z" transform="translate(-2.5939 -1.7473)"/><path class="cls-1" d="M184.6007,11.2834V12.25h.7852a.856.856,0,0,1,.86.8574l.0059,17.3784h3.5068v-11.85c0-1.3852,1.2246-4.7392,4.1973-4.7392,2.34,0,3.48,1.3633,3.48,4.1831V30.486h5.18v-.9741h-.7881a.8534.8534,0,0,1-.8545-.874v-10.7c0-3.3037-1.5127-6.8433-5.5889-6.8433a7.2923,7.2923,0,0,0-5.7324,2.9453V11.2834Z" transform="translate(-2.5939 -1.7473)"/><path class="cls-1" d="M176.046,30.486h5.168v-.9741h-.78a.8623.8623,0,0,1-.8593-.874V11.2834h-1.3389l-3.8711,1.3657v.8457l.8105-.0073a.8722.8722,0,0,1,.8711.8711Z" transform="translate(-2.5939 -1.7473)"/><path class="cls-1" d="M170.2091,26.2228l-.124.2369c-.6221,1.1674-1.2373,1.7226-3.0732,1.7226h-7.6036L169.715,12.9611V11.2834H156.1232l-.8623,4.0591.7578.1811.1182-.229c.6289-1.1635,1.2431-1.727,3.0752-1.727h6.0449L154.9835,28.7409V30.486h15.1192l.8681-4.0781Z" transform="translate(-2.5939 -1.7473)"/><path class="cls-1" d="M131.2179,29.5119a.8607.8607,0,0,1-.86-.874v-10.7c0-3.3037-1.51-6.8433-5.5821-6.8433a7.2829,7.2829,0,0,0-5.7334,2.9453,5.7366,5.7366,0,0,0-.4521.6338,5.09,5.09,0,0,0-5.0322-3.5791A7.051,7.051,0,0,0,107.964,14.04V11.2858h-5.0478V12.25h.788a.8546.8546,0,0,1,.8594.8574L104.57,30.486h3.5029v-11.85c0-1.3852,1.09-4.7392,4.06-4.7392,2.3349,0,3.4824,1.3633,3.4824,4.1831V30.486h3.53V18.6916l.0039-.0557c0-1.3852,1.22-4.7392,4.1982-4.7392,2.3281,0,3.4834,1.3633,3.4834,4.1831V30.486h5.1729v-.9741Z" transform="translate(-2.5939 -1.7473)"/><path class="cls-1" d="M75.654,85.3933c-1.9019,0-2.4751-1.4873-2.4751-3.2813V43.864H65.9782V61.9968H48.5822V43.864H41.381V82.112c0,1.794-.5752,3.2813-2.4785,3.2813H37.341v1.2983H48.5822V67.4934h17.396V86.6916H77.22V85.3933Z" transform="translate(-2.5939 -1.7473)"/><path class="cls-1" d="M127.8253,43.864V86.6916h11.2413V85.3933h-1.5625c-1.9043,0-2.4747-1.4873-2.4747-3.2813V43.864Z" transform="translate(-2.5939 -1.7473)"/><path class="cls-1" d="M173.6457,76.98a11.266,11.266,0,0,1-1.3848,2.2192,5.372,5.372,0,0,1-1.5957,1.3218,6.2025,6.2025,0,0,1-2.06.6406,19.9987,19.9987,0,0,1-2.8506.1714L155.6935,81.33c-1.7246,0-2.4619-.58-2.4619-1.7539V43.864h-7.19V82.112c0,1.7935-.5713,3.28-2.4746,3.28h-1.5635v1.3H172.338l2.2168-9.541Z" transform="translate(-2.5939 -1.7473)"/><path class="cls-1" d="M253.3419,43.9323v30.89l-20.8486-30.89h-6.5889v38.18c0,1.794-.5732,3.2813-2.4765,3.2813h-1.5625v1.2983h11.2412v-30.39l20.5605,30.39h6.8409V43.9323Z" transform="translate(-2.5939 -1.7473)"/><path class="cls-2" d="M197.97,92.6433c8.5088-9.583,26.9687,3.4336,35.9443-2.917-1.9414,3.6045-7.9785,6.1132-10.41,8.0166-10.087,7.8789-8.6778,27.0293-17.7286,43.16-10.7,19.0323-34.9062,36.02-65.5664,29.4082-27.2509-5.8789-38.1689-26.4785-43.102-39.6806C92.88,119.3356,91.3952,116.5622,85.006,110.62c14.2178,4.6973,20.3311,23.4239,45.96,28.9522,20.7558,4.4726,45.6123-1.209,59.5205-18.169C202.1681,107.1247,203.2,99.5222,211.2,94.7272,208.0109,93.9245,204.3566,90.6354,197.97,92.6433Z" transform="translate(-2.5939 -1.7473)"/><path class="cls-1" d="M100.9533,52.9465l4.3525,10.8647a19.5819,19.5819,0,0,1,8.88,2.2061l-9.2139-22.085H99.77l-9.0811,22.02a16.4061,16.4061,0,0,1,5.81-1.8526Z" transform="translate(-2.5939 -1.7473)"/><path class="cls-1" d="M195.6945,52.9465l4.3525,10.8647a19.5881,19.5881,0,0,1,8.88,2.2061l-9.2129-22.085h-5.2031l-9.0811,22.02a16.408,16.408,0,0,1,5.8086-1.8526Z" transform="translate(-2.5939 -1.7473)"/><path class="cls-1" d="M36.5582,43.864H3.007l-.4131,9.2475H3.54c.3345-1.5107.7583-3.0542,1.4311-3.5581A5.72,5.72,0,0,1,8.4835,48.63h7.6988v38.062H27.47V85.3933H25.91c-1.9018,0-2.4756-1.4873-2.4756-3.2813V48.63h7.5611a5.3413,5.3413,0,0,1,3.2739.8389,8.2607,8.2607,0,0,1,1.5869,3.643h1.03Z" transform="translate(-2.5939 -1.7473)"/><path class="cls-1" d="M279.3048,43.9567c6.6211,0,24.1436,1.3052,24.1436,21.4663,0,20.5982-18.7276,21.2686-25.9336,21.2686H263.5626V85.3933h1.5645c1.9014,0,2.4775-1.4873,2.4775-3.2813V43.9567ZM275.01,48.592V82.1691h1.5117c5.8535,0,11.0557-1.2529,15-4.6821,3.9453-3.4311,4.3575-9.49,4.3575-12.1064s-.4053-8.2251-4.334-12.1079-10.8174-4.6807-13.68-4.6807Z" transform="translate(-2.5939 -1.7473)"/><path class="cls-3" d="M102.38,70.0764c2.5684,0,5.8985.26,7.7324,5.5332l1.6954,5.3784a8.0158,8.0158,0,0,0,5.1386,5.0029,18.7252,18.7252,0,0,0,5.4209.6826l2.0137.0015V85.3937c-2.2451,0-3.87-.9272-5.2061-4.7387L116.7267,73.37c-1.7344-5.143-6.1914-6.5732-14.3467-6.5732s-12.61,1.43-14.3452,6.5732L85.5836,80.655c-1.3359,3.8115-2.9589,4.7387-5.2041,4.7387V86.675l2.0142-.0015a18.738,18.738,0,0,0,5.4214-.6826,8.0281,8.0281,0,0,0,5.1391-5.0029L94.6457,75.61C96.4811,70.3361,99.81,70.0764,102.38,70.0764Z" transform="translate(-2.5939 -1.7473)"/><path class="cls-3" d="M197.1212,70.0764c2.5684,0,5.9.26,7.7315,5.5332l1.6953,5.3784a8.016,8.016,0,0,0,5.1387,5.0029,18.72,18.72,0,0,0,5.4189.6826l2.0137.0015V85.3937c-2.2442,0-3.8672-.9272-5.2031-4.7387L211.4669,73.37c-1.7353-5.143-6.1914-6.5732-14.3457-6.5732-8.1582,0-12.6113,1.43-14.3447,6.5732l-2.4521,7.2852c-1.335,3.8115-2.961,4.7387-5.2041,4.7387V86.675l2.0127-.0015a18.7346,18.7346,0,0,0,5.4218-.6826,8.0355,8.0355,0,0,0,5.1407-5.0029l1.6923-5.3784C191.22,70.3361,194.549,70.0764,197.1212,70.0764Z" transform="translate(-2.5939 -1.7473)"/></svg>
